#!OML:ASF F:\VICON\USERDATA\INSTALL\rory3\rory3.ASF
:FULLY-SPECIFIED
:DEGREES
55
root 1.026297886911303 17.86721964549233 37.57325701699863 -3.698784047206619 -0.9253641788401743 -5.670388942056371
lfemur -19.999116827361853 -0.7076657833938993 -13.311441654072503
ltibia 57.8524238837078
lfoot -9.043972756039404 2.887043266481798
ltoes -8.590012654876082
rfemur -4.532880846055525 4.919529395391352 30.54642664219982
rtibia 29.346833107779954
rfoot -14.418630403225436 -8.483041806502582
rtoes -2.127862361324856
lowerback 1.0 0.3524894121144055 4.1021627862901315
upperback 0.3640776355900298 1.502311007501044 2.435542461521714
thorax -5.419858850843386 0.7492081853414986 0.17364503436317202
lowerneck -16.373730721654677 -2.9581000455184254 -1.1758293201254681
upperneck 22.702821413907674 -3.723902054985076 -0.43047503537940524
head 9.93988342423511 -1.8912404782284384 -0.4283796190068865
lclavicle -1.832352297669575e-15 -1.4026078896420193e-16
lhumerus -35.32139195685434 5.096670003587318 82.78334491723793
lradius 22.337432887348957
lwrist 7.292629325149196
lhand -27.968796991658145 22.977352348765155
lfingers nan
lthumb -1.2273897462820886 53.013887610651345
rclavicle -1.877988265985025e-15 -1.8211634516864905e-16
rhumerus -29.075687550596907 -27.130143914214113 -70.67242370527832
rradius 28.24804045820182
rwrist 0.9974626211480366
rhand -18.188183749453916 1.0
rfingers nan
rthumb 8.24851614858377 -7.982777760079901
56
root 1.0762026762533903 17.864953190226576 38.594774604691295 -3.724846458836531 -0.6260593702383737 -5.866328816343811
lfemur -21.75284089625773 -1.251682384005021 -13.903778279797784
ltibia 54.29478299859133
lfoot -9.05543381695454 2.806939359621986
ltoes -9.735493948597751
rfemur -3.279215361092998 4.914854765896493 30.574648346026883
rtibia 30.034210522156698
rfoot -11.98865591510376 -7.8218653600573855
rtoes -1.441807855214051
lowerback 1.0 0.4668194820878684 4.461160605500584
upperback 0.25029964867094706 1.7036911108284636 2.2891851335722757
thorax -5.450029550729382 0.8351238303297832 -0.22290972391137576
lowerneck -16.258722863932487 -3.0130963871906795 -1.17854121104518
upperneck 22.774042972896446 -3.8334997507205184 -0.36283401804721443
head 9.96482814428212 -1.9280478903920009 -0.42276058990266885
lclavicle -1.8275561619200026e-15 -1.3836565629903915e-16
lhumerus -35.774838724986196 5.784167709527544 82.58611554064692
lradius 23.211344722091386
lwrist 7.1827046125718415
lhand -27.96491910448587 23.058416194297582
lfingers nan
lthumb -1.296480033231591 53.10601602043777
rclavicle -1.8703328933632056e-15 -1.8126155158952734e-16
rhumerus -27.84922698399315 -25.608512211830703 -70.7594196070016
rradius 28.6677160840158
rwrist 1.188247458796421
rhand -18.204228639416755 1.0
rfingers nan
rthumb 8.220119972179619 -7.737226433916901
57
root 1.1149980286144285 17.874386110725332 40.16883756583993 -3.581199731166756 -0.4933668143752007 -6.22974017934742
lfemur -22.517430755024442 -1.6983732442877004 -14.214914990631328
ltibia 49.42899043807986
lfoot -8.21644642016542 3.119890127631851
ltoes -9.874088616595555
rfemur -2.488030720413672 5.313657620545727 31.025180743574662
rtibia 31.476627870068896
rfoot -9.517383140471486 -7.416437092537198
rtoes -0.16130380097833763
lowerback 1.0 0.5443175740527388 4.803915523184857
upperback 0.1702167490429941 1.8615838269000393 2.179076065849088
thorax -5.4235433589637125 0.9179861615906671 -0.47356358730228076
lowerneck -16.165445670636387 -3.073511018721834 -1.1898571876308632
upperneck 22.911114478537748 -3.9579161824268927 -0.29356185352534636
head 10.027645925521847 -1.9679101550215585 -0.41755122929881816
lclavicle -1.8256909034610003e-15 -1.385438226257597e-16
lhumerus -35.843814130705645 6.106531700183542 82.44298895448995
lradius 24.02017151532921
lwrist 6.870589529917613
lhand -27.930154152611028 23.135030992234093
lfingers nan
lthumb -1.303958406879558 53.21187137748877
rclavicle -1.862344374501459e-15 -1.7913045879921218e-16
rhumerus -26.902374424483494 -24.211267914102226 -70.71386733329447
rradius 29.253807217481366
rwrist 2.224858045021222
rhand -18.23122106462788 1.0
rfingers nan
rthumb 8.19119943592588 -7.484375248278107
58
root 1.1551244572775836 17.890242501325364 41.66232645712195 -3.521208332110156 -0.4459210090332173 -5.918467149538522
lfemur -21.919940081204892 -1.895690716897998 -14.831166602680046
ltibia 43.456982719696704
lfoot -8.868845447312289 1.7246368683347355
ltoes -10.616401274876782
rfemur -2.304716784988864 5.599229410817551 30.807785823494047
rtibia 33.754865416506135
rfoot -7.67246264941601 -7.656490426011116
rtoes 1.536207256563233
lowerback 1.0 0.6286960115500226 4.688101737547466
upperback 0.14869500038104833 1.882747207879406 2.014659891141925
thorax -5.294463564523368 0.9296993788639136 -0.5650315519796538
lowerneck -16.056439205043276 -3.122421937164008 -1.2246793113102867
upperneck 23.013907582366095 -4.062571519484814 -0.20257501440190723
head 10.076868914353321 -2.0001064830976576 -0.39791367391978744
lclavicle -1.823992058260672e-15 -1.3812913122634043e-16
lhumerus -35.621804181370756 6.007035045071619 82.36322847839264
lradius 24.78974610227981
lwrist 6.5250332735214265
lhand -27.8919165400999 23.22712117218947
lfingers nan
lthumb -1.2627865163254461 53.33483558825854
rclavicle -1.8563212109565813e-15 -1.7673741158426836e-16
rhumerus -26.20653209708009 -22.907061046093276 -70.6600802609721
rradius 29.91736980473545
rwrist 3.242031815003724
rhand -18.248345591927258 1.0
rfingers nan
rthumb 8.161901427165132 -7.331875925282519
59
root 1.2006167201765923 17.90989960360738 42.99827284158213 -3.4699319805572815 -0.2995300163404224 -5.740588241261543
lfemur -20.965158366663445 -2.11892203078568 -15.381954697519527
ltibia 37.49320801948117
lfoot -7.612463496009297 2.1413536857101687
ltoes -11.478560683525847
rfemur -2.6753264071058 5.583257745896021 30.58695483958806
rtibia 36.87227483699649
rfoot -6.547382226909054 -8.396940309118245
rtoes 3.3942837359369054
lowerback 1.0 0.6748017730205763 4.617324507896378
upperback 0.13134759595876724 1.9477495874125486 1.9816340284164127
thorax -5.185440550042141 0.9615298350641756 -0.6666993932911387
lowerneck -15.937631572400647 -3.174456662164347 -1.2830581588171723
upperneck 23.090020708455853 -4.163688728629799 -0.0962157526433724
head 10.119363373090033 -2.0290043639285025 -0.3692224548926307
lclavicle -1.8216163487168358e-15 -1.3649679417101658e-16
lhumerus -35.18160253264104 5.547859397450818 82.3296531184398
lradius 25.521659198756232
lwrist 6.302117872555996
lhand -27.857238374395774 23.379298090920866
lfingers nan
lthumb -1.2389736218470644 53.44837571797843
rclavicle -1.8541430351334792e-15 -1.7584357839442724e-16
rhumerus -25.76444009002413 -21.722284187589164 -70.78185330774208
rradius 30.554704867339943
rwrist 3.8875885411927187
rhand -18.227056933242245 1.0
rfingers nan
rthumb 8.180676630688257 -7.357600373996663
60
root 1.2213733019362838 17.92486575266574 43.785844754219966 -3.3565240758909534 -0.07681101803120871 -5.973238350503338
lfemur -19.850776167777802 -2.4333235114653764 -15.797384312368619
ltibia 32.365648738012396
lfoot -7.184887782936224 0.6504990593486104
ltoes -11.341280417532596
rfemur -3.5040410217107087 5.368320411698553 30.55065123502817
rtibia 40.564964817885766
rfoot -5.973851428035847 -9.249445333242116
rtoes 5.170092805277198
lowerback 1.0 0.7102451302334511 4.799388800645396
upperback 0.050268151590950994 1.9806570764336349 2.0187243813311517
thorax -5.171330654950225 0.9668704841977398 -0.8353278144251515
lowerneck -15.831471471640263 -3.20425228215413 -1.326176391093726
upperneck 23.129687374324927 -4.2253083560926 0.007682639567604576
head 10.1358020912174 -2.04555914898675 -0.3344000256739821
lclavicle -1.819449532445115e-15 -1.3500827709711795e-16
lhumerus -34.51950558678001 4.852201765321299 82.31534842297765
lradius 26.203537742628058
lwrist 6.197367710148706
lhand -27.814125335826414 23.543834944869456
lfingers nan
lthumb -1.1769533448952596 53.64655389007367
rclavicle -1.8511917135077364e-15 -1.7442828032825835e-16
rhumerus -25.48910898217659 -20.650933684161306 -71.11531116335742
rradius 31.060171597965624
rwrist 3.7764851306543474
rhand -18.210802647915298 1.0
rfingers nan
rthumb 8.19155543868735 -7.57861113391007
61
root 1.235401754849291 17.934738970785116 44.811967328931416 -3.329354629946047 0.16289724837576092 -5.5743501842860335
lfemur -18.19641945658629 -2.8149960822377436 -16.920005534797248
ltibia 28.332725123730146
lfoot -6.040900345191435 -0.7019699266441211
ltoes -10.328623249585002
rfemur -4.580931301622195 4.791722291831277 29.72099841036157
rtibia 44.40941164132979
rfoot -5.871464903535934 -9.88697006740866
rtoes 6.69744664157138
lowerback 1.0 0.6705301262291303 4.493238418135023
upperback 0.0016415907491986736 1.9669958735694175 1.9825513278122109
thorax -5.165224098139194 0.9596178035940393 -0.8737881632462527
lowerneck -15.804286534448941 -3.228001834293445 -1.3542911861274043
upperneck 23.184377726720314 -4.272513937085231 0.11119396399370594
head 10.160605805510661 -2.0553332434457365 -0.29663299923585557
lclavicle -1.8191534730757775e-15 -1.351948805061514e-16
lhumerus -33.64193945341608 4.030918400708929 82.28078920092283
lradius 26.82972428261415
lwrist 6.116600632109291
lhand -27.70177415956724 23.741697371740297
lfingers nan
lthumb -1.0889876852333558 53.800489473608735
rclavicle -1.8484924350772422e-15 -1.7373662532582382e-16
rhumerus -25.359184448869268 -19.718464732263126 -71.66576194598554
rradius 31.376609397756255
rwrist 3.1768145380887916
rhand -18.178576282920496 1.0
rfingers nan
rthumb 8.214769484261867 -7.834012250684193
62
root 1.2375465222781084 17.93200690328508 45.15999672004695 -3.489519090627134 0.3263235359740808 -4.587112113055978
lfemur -16.034263222253706 -3.1613159784749802 -18.46831232861547
ltibia 25.556120306189666
lfoot -5.91494521912621 -2.587330171726896
ltoes -9.93619703953211
rfemur -5.943136150647269 3.853068990267662 28.130189228239075
rtibia 48.14877682541571
rfoot -6.160622153924438 -9.948987648922785
rtoes 7.780294895276326
lowerback 1.0 0.5769807492967614 3.6824930301591814
upperback 0.01889461019499747 1.7109127688389667 1.82116681485743
thorax -5.127309677707885 0.8547721303193571 -0.6197791275923425
lowerneck -15.818542914688207 -3.2386179385185594 -1.367717408676839
upperneck 23.149822569543446 -4.304726004035675 0.21819447954339788
head 10.160459315803942 -2.058771404577998 -0.2554405453163264
lclavicle -1.819371876712523e-15 -1.3515722525730914e-16
lhumerus -32.597985425062724 3.159335383732289 82.18877535251258
lradius 27.423955432854967
lwrist 5.961131669584387
lhand -27.529604310032397 23.90760398220336
lfingers nan
lthumb -0.9175546137928381 53.960477846711086
rclavicle -1.8489254084117495e-15 -1.7411045742201878e-16
rhumerus -25.396848562759168 -19.000848121900482 -72.45102676527961
rradius 31.461655227986917
rwrist 2.501409906670531
rhand -18.157878878020117 1.0
rfingers nan
rthumb 8.24154370066266 -8.031451339452225
